<mxfile host="Electron" agent="Mozilla/5.0 (Windows NT 10.0; Win64; x64) AppleWebKit/537.36 (KHTML, like Gecko) draw.io/26.1.1 Chrome/132.0.6834.210 Electron/34.3.3 Safari/537.36" version="26.1.1">
  <diagram name="Seite-1" id="VNqYd41rcaO2jr7u89i5">
    <mxGraphModel dx="1147" dy="683" grid="1" gridSize="10" guides="1" tooltips="1" connect="1" arrows="1" fold="1" page="1" pageScale="1" pageWidth="827" pageHeight="1169" math="0" shadow="0">
      <root>
        <mxCell id="0" />
        <mxCell id="1" parent="0" />
        <mxCell id="4xrK3uuY5GuTLQ6v3vQ2-31" value="" style="rounded=1;whiteSpace=wrap;html=1;connectable=0;dashed=1;strokeColor=light-dark(#0005d1, #ededed);fillColor=none;strokeWidth=1;" parent="1" vertex="1">
          <mxGeometry x="138" y="610" width="570" height="140" as="geometry" />
        </mxCell>
        <mxCell id="4xrK3uuY5GuTLQ6v3vQ2-51" style="edgeStyle=orthogonalEdgeStyle;rounded=0;orthogonalLoop=1;jettySize=auto;html=1;exitX=1;exitY=0.5;exitDx=0;exitDy=0;entryX=0;entryY=0.5;entryDx=0;entryDy=0;strokeWidth=3;" parent="1" source="4xrK3uuY5GuTLQ6v3vQ2-3" target="4xrK3uuY5GuTLQ6v3vQ2-5" edge="1">
          <mxGeometry relative="1" as="geometry" />
        </mxCell>
        <mxCell id="4xrK3uuY5GuTLQ6v3vQ2-3" value="" style="rounded=0;whiteSpace=wrap;html=1;fontSize=50;fontStyle=2;labelBackgroundColor=none;fontFamily=Times New Roman;fillColor=none;strokeWidth=3;" parent="1" vertex="1">
          <mxGeometry x="148" y="620" width="215" height="120" as="geometry" />
        </mxCell>
        <mxCell id="4xrK3uuY5GuTLQ6v3vQ2-48" style="edgeStyle=orthogonalEdgeStyle;rounded=0;orthogonalLoop=1;jettySize=auto;html=1;exitX=1;exitY=0.5;exitDx=0;exitDy=0;entryX=0;entryY=0.5;entryDx=0;entryDy=0;strokeWidth=3;" parent="1" source="4xrK3uuY5GuTLQ6v3vQ2-4" target="4xrK3uuY5GuTLQ6v3vQ2-6" edge="1">
          <mxGeometry relative="1" as="geometry" />
        </mxCell>
        <mxCell id="4xrK3uuY5GuTLQ6v3vQ2-4" value="" style="rounded=0;whiteSpace=wrap;html=1;labelBackgroundColor=none;fontFamily=Times New Roman;fontStyle=0;fillColor=none;strokeWidth=3;" parent="1" vertex="1">
          <mxGeometry x="484" y="620" width="215" height="120" as="geometry" />
        </mxCell>
        <mxCell id="4xrK3uuY5GuTLQ6v3vQ2-28" style="edgeStyle=orthogonalEdgeStyle;rounded=0;orthogonalLoop=1;jettySize=auto;html=1;exitX=0.5;exitY=0;exitDx=0;exitDy=0;strokeWidth=3;strokeColor=light-dark(#3fc441, #ededed);endArrow=none;startFill=1;startArrow=classic;entryX=0.5;entryY=1;entryDx=0;entryDy=0;" parent="1" source="4xrK3uuY5GuTLQ6v3vQ2-5" target="4xrK3uuY5GuTLQ6v3vQ2-54" edge="1">
          <mxGeometry relative="1" as="geometry">
            <mxPoint x="424" y="510" as="targetPoint" />
            <Array as="points" />
          </mxGeometry>
        </mxCell>
        <mxCell id="4xrK3uuY5GuTLQ6v3vQ2-50" style="edgeStyle=orthogonalEdgeStyle;rounded=0;orthogonalLoop=1;jettySize=auto;html=1;exitX=1;exitY=0.5;exitDx=0;exitDy=0;entryX=0;entryY=0.5;entryDx=0;entryDy=0;strokeWidth=3;" parent="1" source="4xrK3uuY5GuTLQ6v3vQ2-5" target="4xrK3uuY5GuTLQ6v3vQ2-4" edge="1">
          <mxGeometry relative="1" as="geometry" />
        </mxCell>
        <mxCell id="4xrK3uuY5GuTLQ6v3vQ2-5" value="" style="ellipse;whiteSpace=wrap;html=1;aspect=fixed;fillColor=none;strokeColor=#82b366;gradientColor=none;strokeWidth=3;" parent="1" vertex="1">
          <mxGeometry x="409" y="665" width="30" height="30" as="geometry" />
        </mxCell>
        <mxCell id="4xrK3uuY5GuTLQ6v3vQ2-11" style="edgeStyle=orthogonalEdgeStyle;rounded=0;orthogonalLoop=1;jettySize=auto;html=1;exitX=1;exitY=0.5;exitDx=0;exitDy=0;strokeWidth=3;" parent="1" source="4xrK3uuY5GuTLQ6v3vQ2-12" edge="1">
          <mxGeometry relative="1" as="geometry">
            <mxPoint x="835" y="680" as="targetPoint" />
            <Array as="points">
              <mxPoint x="825" y="680" />
              <mxPoint x="825" y="680" />
            </Array>
          </mxGeometry>
        </mxCell>
        <mxCell id="4xrK3uuY5GuTLQ6v3vQ2-47" style="edgeStyle=orthogonalEdgeStyle;rounded=0;orthogonalLoop=1;jettySize=auto;html=1;exitX=1;exitY=0.5;exitDx=0;exitDy=0;entryX=0;entryY=0.5;entryDx=0;entryDy=0;strokeWidth=3;endArrow=none;startFill=0;" parent="1" source="4xrK3uuY5GuTLQ6v3vQ2-6" target="4xrK3uuY5GuTLQ6v3vQ2-12" edge="1">
          <mxGeometry relative="1" as="geometry" />
        </mxCell>
        <mxCell id="4xrK3uuY5GuTLQ6v3vQ2-6" value="" style="ellipse;whiteSpace=wrap;html=1;aspect=fixed;fillColor=none;strokeColor=#82b366;gradientColor=none;strokeWidth=3;" parent="1" vertex="1">
          <mxGeometry x="725" y="665" width="30" height="30" as="geometry" />
        </mxCell>
        <mxCell id="4xrK3uuY5GuTLQ6v3vQ2-20" style="edgeStyle=orthogonalEdgeStyle;rounded=0;orthogonalLoop=1;jettySize=auto;html=1;exitX=0.5;exitY=0;exitDx=0;exitDy=0;entryX=0.5;entryY=1;entryDx=0;entryDy=0;strokeWidth=3;strokeColor=light-dark(#c50f1a, #ededed);" parent="1" source="4xrK3uuY5GuTLQ6v3vQ2-12" target="4xrK3uuY5GuTLQ6v3vQ2-19" edge="1">
          <mxGeometry relative="1" as="geometry" />
        </mxCell>
        <mxCell id="4xrK3uuY5GuTLQ6v3vQ2-26" value="&lt;font style=&quot;font-size: 50px;&quot;&gt;-&lt;/font&gt;" style="edgeLabel;html=1;align=center;verticalAlign=middle;resizable=0;points=[];fontStyle=2;labelBackgroundColor=none;fontColor=light-dark(#c50f1a, #ededed);" parent="4xrK3uuY5GuTLQ6v3vQ2-20" vertex="1" connectable="0">
          <mxGeometry x="0.7297" y="-1" relative="1" as="geometry">
            <mxPoint x="14" y="-2" as="offset" />
          </mxGeometry>
        </mxCell>
        <mxCell id="4xrK3uuY5GuTLQ6v3vQ2-12" value="" style="ellipse;whiteSpace=wrap;html=1;aspect=fixed;fillColor=#000000;" parent="1" vertex="1">
          <mxGeometry x="765" y="675" width="10" height="10" as="geometry" />
        </mxCell>
        <mxCell id="4xrK3uuY5GuTLQ6v3vQ2-18" style="edgeStyle=orthogonalEdgeStyle;rounded=0;orthogonalLoop=1;jettySize=auto;html=1;exitX=0.5;exitY=1;exitDx=0;exitDy=0;entryX=0.5;entryY=1;entryDx=0;entryDy=0;strokeWidth=3;strokeColor=light-dark(#000000,#EDEDED);" parent="1" target="4xrK3uuY5GuTLQ6v3vQ2-16" edge="1">
          <mxGeometry relative="1" as="geometry">
            <mxPoint x="770" y="675" as="sourcePoint" />
            <mxPoint x="106" y="685" as="targetPoint" />
            <Array as="points">
              <mxPoint x="770" y="760" />
              <mxPoint x="84" y="760" />
            </Array>
          </mxGeometry>
        </mxCell>
        <mxCell id="4xrK3uuY5GuTLQ6v3vQ2-25" value="&lt;font style=&quot;font-size: 50px;&quot;&gt;&lt;i style=&quot;&quot;&gt;-&lt;/i&gt;&lt;/font&gt;" style="edgeLabel;html=1;align=center;verticalAlign=middle;resizable=0;points=[];fillOpacity=0;noLabel=0;labelBackgroundColor=none;" parent="4xrK3uuY5GuTLQ6v3vQ2-18" vertex="1" connectable="0">
          <mxGeometry x="0.9465" y="-2" relative="1" as="geometry">
            <mxPoint x="-23" as="offset" />
          </mxGeometry>
        </mxCell>
        <mxCell id="4xrK3uuY5GuTLQ6v3vQ2-52" style="edgeStyle=orthogonalEdgeStyle;rounded=0;orthogonalLoop=1;jettySize=auto;html=1;exitX=1;exitY=0.5;exitDx=0;exitDy=0;entryX=0;entryY=0.5;entryDx=0;entryDy=0;strokeWidth=3;" parent="1" source="4xrK3uuY5GuTLQ6v3vQ2-16" target="4xrK3uuY5GuTLQ6v3vQ2-3" edge="1">
          <mxGeometry relative="1" as="geometry" />
        </mxCell>
        <mxCell id="4xrK3uuY5GuTLQ6v3vQ2-16" value="" style="ellipse;whiteSpace=wrap;html=1;aspect=fixed;fillColor=none;strokeColor=#000000;gradientColor=none;strokeWidth=3;" parent="1" vertex="1">
          <mxGeometry x="69" y="665" width="30" height="30" as="geometry" />
        </mxCell>
        <mxCell id="4xrK3uuY5GuTLQ6v3vQ2-27" style="edgeStyle=orthogonalEdgeStyle;rounded=0;orthogonalLoop=1;jettySize=auto;html=1;exitX=1;exitY=0.5;exitDx=0;exitDy=0;strokeWidth=3;strokeColor=light-dark(#c50f1a, #ededed);" parent="1" source="4xrK3uuY5GuTLQ6v3vQ2-19" edge="1">
          <mxGeometry relative="1" as="geometry">
            <mxPoint x="835" y="440" as="targetPoint" />
          </mxGeometry>
        </mxCell>
        <mxCell id="4xrK3uuY5GuTLQ6v3vQ2-19" value="" style="ellipse;whiteSpace=wrap;html=1;aspect=fixed;fillColor=none;strokeColor=light-dark(#c50f1a, #446E2C);gradientColor=none;strokeWidth=3;" parent="1" vertex="1">
          <mxGeometry x="755" y="425" width="30" height="30" as="geometry" />
        </mxCell>
        <mxCell id="4xrK3uuY5GuTLQ6v3vQ2-23" style="edgeStyle=orthogonalEdgeStyle;rounded=0;orthogonalLoop=1;jettySize=auto;html=1;exitX=0.5;exitY=0;exitDx=0;exitDy=0;entryX=0;entryY=0.5;entryDx=0;entryDy=0;strokeWidth=3;strokeColor=light-dark(#c50f1a, #ededed);" parent="1" source="4xrK3uuY5GuTLQ6v3vQ2-22" target="4xrK3uuY5GuTLQ6v3vQ2-19" edge="1">
          <mxGeometry relative="1" as="geometry" />
        </mxCell>
        <mxCell id="4xrK3uuY5GuTLQ6v3vQ2-24" value="" style="edgeStyle=orthogonalEdgeStyle;rounded=0;orthogonalLoop=1;jettySize=auto;html=1;exitX=0;exitY=0.5;exitDx=0;exitDy=0;strokeWidth=3;endArrow=none;startFill=1;startArrow=classic;" parent="1" source="4xrK3uuY5GuTLQ6v3vQ2-16" target="4xrK3uuY5GuTLQ6v3vQ2-22" edge="1">
          <mxGeometry relative="1" as="geometry">
            <mxPoint x="50" y="780" as="targetPoint" />
            <mxPoint x="100" y="680" as="sourcePoint" />
          </mxGeometry>
        </mxCell>
        <mxCell id="4xrK3uuY5GuTLQ6v3vQ2-45" style="edgeStyle=orthogonalEdgeStyle;rounded=0;orthogonalLoop=1;jettySize=auto;html=1;exitX=0.5;exitY=1;exitDx=0;exitDy=0;endArrow=none;startFill=0;strokeWidth=3;entryX=0;entryY=0.5;entryDx=0;entryDy=0;" parent="1" source="4xrK3uuY5GuTLQ6v3vQ2-22" target="4xrK3uuY5GuTLQ6v3vQ2-61" edge="1">
          <mxGeometry relative="1" as="geometry">
            <mxPoint x="50" y="830" as="targetPoint" />
            <Array as="points">
              <mxPoint x="18" y="839" />
            </Array>
          </mxGeometry>
        </mxCell>
        <mxCell id="4xrK3uuY5GuTLQ6v3vQ2-22" value="" style="ellipse;whiteSpace=wrap;html=1;aspect=fixed;fillColor=#000000;" parent="1" vertex="1">
          <mxGeometry x="13" y="675" width="10" height="10" as="geometry" />
        </mxCell>
        <mxCell id="4xrK3uuY5GuTLQ6v3vQ2-33" value="&lt;i&gt;&lt;font style=&quot;font-size: 50px;&quot;&gt;L&lt;/font&gt;&lt;/i&gt;" style="text;html=1;align=center;verticalAlign=middle;whiteSpace=wrap;rounded=0;fontColor=light-dark(#0100d6, #ededed);fontStyle=0;fontFamily=Times New Roman;" parent="1" vertex="1">
          <mxGeometry x="94" y="578.5" width="60" height="30" as="geometry" />
        </mxCell>
        <mxCell id="4xrK3uuY5GuTLQ6v3vQ2-36" value="&lt;font style=&quot;font-size: 40px;&quot;&gt;e&lt;/font&gt;" style="text;html=1;align=center;verticalAlign=middle;whiteSpace=wrap;rounded=0;fontColor=light-dark(#c50f1a, #ededed);fontStyle=2;fontFamily=Times New Roman;" parent="1" vertex="1">
          <mxGeometry x="775" y="405" width="60" height="30" as="geometry" />
        </mxCell>
        <mxCell id="4xrK3uuY5GuTLQ6v3vQ2-37" value="&lt;font style=&quot;font-size: 40px;&quot;&gt;y&lt;/font&gt;" style="text;html=1;align=center;verticalAlign=middle;whiteSpace=wrap;rounded=0;fontColor=light-dark(#000000,#EDEDED);fontStyle=2;fontFamily=Times New Roman;" parent="1" vertex="1">
          <mxGeometry x="775" y="636" width="60" height="30" as="geometry" />
        </mxCell>
        <mxCell id="4xrK3uuY5GuTLQ6v3vQ2-41" value="&lt;font style=&quot;font-size: 40px;&quot;&gt;v&lt;/font&gt;" style="text;html=1;align=center;verticalAlign=middle;whiteSpace=wrap;rounded=0;fontColor=light-dark(#000000,#EDEDED);fontStyle=2;fontFamily=Times New Roman;" parent="1" vertex="1">
          <mxGeometry x="429" y="636" width="60" height="30" as="geometry" />
        </mxCell>
        <mxCell id="4xrK3uuY5GuTLQ6v3vQ2-42" value="&lt;font style=&quot;font-size: 40px;&quot;&gt;u&lt;/font&gt;" style="text;html=1;align=center;verticalAlign=middle;whiteSpace=wrap;rounded=0;fontColor=light-dark(#000000,#EDEDED);fontStyle=2;fontFamily=Times New Roman;" parent="1" vertex="1">
          <mxGeometry x="359" y="636" width="60" height="30" as="geometry" />
        </mxCell>
        <mxCell id="4xrK3uuY5GuTLQ6v3vQ2-53" value="&lt;font style=&quot;font-size: 40px;&quot;&gt;r&lt;/font&gt;" style="text;html=1;align=center;verticalAlign=middle;whiteSpace=wrap;rounded=0;fontColor=light-dark(#000000,#EDEDED);fontStyle=2;fontFamily=Times New Roman;" parent="1" vertex="1">
          <mxGeometry x="20" y="636" width="60" height="30" as="geometry" />
        </mxCell>
        <mxCell id="4xrK3uuY5GuTLQ6v3vQ2-60" style="edgeStyle=orthogonalEdgeStyle;rounded=0;orthogonalLoop=1;jettySize=auto;html=1;exitX=0.5;exitY=0;exitDx=0;exitDy=0;endArrow=none;startFill=0;strokeWidth=3;strokeColor=light-dark(#3fc441, #ededed);entryX=1;entryY=0.5;entryDx=0;entryDy=0;" parent="1" source="4xrK3uuY5GuTLQ6v3vQ2-54" target="4xrK3uuY5GuTLQ6v3vQ2-62" edge="1">
          <mxGeometry relative="1" as="geometry">
            <mxPoint x="403.9999999999999" y="510" as="targetPoint" />
            <Array as="points">
              <mxPoint x="424" y="530" />
            </Array>
          </mxGeometry>
        </mxCell>
        <mxCell id="4xrK3uuY5GuTLQ6v3vQ2-54" value="&lt;font style=&quot;font-size: 40px;&quot;&gt;d&lt;sub&gt;2&lt;/sub&gt;&lt;/font&gt;" style="text;html=1;align=center;verticalAlign=middle;whiteSpace=wrap;rounded=0;fontColor=light-dark(#3fc441, #EDEDED);fontStyle=2;fontFamily=Times New Roman;" parent="1" vertex="1">
          <mxGeometry x="394" y="558" width="60" height="45" as="geometry" />
        </mxCell>
        <mxCell id="4xrK3uuY5GuTLQ6v3vQ2-56" style="edgeStyle=orthogonalEdgeStyle;rounded=0;orthogonalLoop=1;jettySize=auto;html=1;exitX=0.5;exitY=1;exitDx=0;exitDy=0;entryX=0.5;entryY=0;entryDx=0;entryDy=0;fontColor=light-dark(#3fc441, #ededed);labelBackgroundColor=none;strokeColor=light-dark(#3fc441, #ededed);strokeWidth=3;" parent="1" source="4xrK3uuY5GuTLQ6v3vQ2-55" target="4xrK3uuY5GuTLQ6v3vQ2-6" edge="1">
          <mxGeometry relative="1" as="geometry" />
        </mxCell>
        <mxCell id="4xrK3uuY5GuTLQ6v3vQ2-55" value="&lt;font style=&quot;font-size: 40px;&quot;&gt;d&lt;sub&gt;1&lt;/sub&gt;&lt;/font&gt;" style="text;html=1;align=center;verticalAlign=middle;whiteSpace=wrap;rounded=0;fontColor=light-dark(#3fc441, #EDEDED);fontStyle=2;fontFamily=Times New Roman;" parent="1" vertex="1">
          <mxGeometry x="710" y="558" width="60" height="45" as="geometry" />
        </mxCell>
        <mxCell id="4xrK3uuY5GuTLQ6v3vQ2-61" value="" style="rounded=0;whiteSpace=wrap;html=1;fontSize=50;fontStyle=2;labelBackgroundColor=none;fontFamily=Times New Roman;fillColor=none;strokeWidth=3;" parent="1" vertex="1">
          <mxGeometry x="316" y="779" width="215" height="120" as="geometry" />
        </mxCell>
        <mxCell id="4xrK3uuY5GuTLQ6v3vQ2-62" value="" style="rounded=0;whiteSpace=wrap;html=1;fontSize=50;fontStyle=2;labelBackgroundColor=none;fontFamily=Times New Roman;fillColor=none;strokeWidth=3;strokeColor=light-dark(#3fc441, #ededed);" parent="1" vertex="1">
          <mxGeometry x="148" y="470" width="215" height="120" as="geometry" />
        </mxCell>
        <mxCell id="4xrK3uuY5GuTLQ6v3vQ2-63" value="" style="rounded=0;whiteSpace=wrap;html=1;fontSize=50;fontStyle=2;labelBackgroundColor=none;fontFamily=Times New Roman;fillColor=none;strokeWidth=3;strokeColor=light-dark(#3fc441, #ededed);" parent="1" vertex="1">
          <mxGeometry x="484" y="470" width="215" height="120" as="geometry" />
        </mxCell>
        <mxCell id="4xrK3uuY5GuTLQ6v3vQ2-64" style="edgeStyle=orthogonalEdgeStyle;rounded=0;orthogonalLoop=1;jettySize=auto;html=1;exitX=0.5;exitY=0;exitDx=0;exitDy=0;entryX=1.003;entryY=0.418;entryDx=0;entryDy=0;entryPerimeter=0;strokeWidth=3;endArrow=none;startFill=0;strokeColor=light-dark(#3fc441, #ededed);" parent="1" source="4xrK3uuY5GuTLQ6v3vQ2-55" target="4xrK3uuY5GuTLQ6v3vQ2-63" edge="1">
          <mxGeometry relative="1" as="geometry" />
        </mxCell>
      </root>
    </mxGraphModel>
  </diagram>
</mxfile>
